<svg id="Layer_1" data-name="Layer 1" xmlns="http://www.w3.org/2000/svg" viewBox="0 0 243 243"><title>hyperglass-favicon</title><path d="M958.35,666a112.5,112.5,0,1,1,112.5-112.5A112.62,112.62,0,0,1,958.35,666Zm0-218.88A106.38,106.38,0,1,0,1064.73,553.5,106.51,106.51,0,0,0,958.35,447.12Z" transform="translate(-836.85 -432)" style="fill:#ff5e5b;stroke:#ff5e5b;stroke-miterlimit:10;stroke-width:18px"/><path d="M887.37,603.1a3.07,3.07,0,0,1-3.1-1.43,95.14,95.14,0,0,1-7.7-15.9,3.06,3.06,0,1,1,5.73-2.15,89.13,89.13,0,0,0,7.2,14.88,3,3,0,0,1-2.13,4.6Z" transform="translate(-836.85 -432)" style="fill:#ff5e5b;stroke:#ff5e5b;stroke-miterlimit:10;stroke-width:6px"/><path d="M876.59,566.37a3,3,0,0,1-3.21-2.89,95,95,0,0,1,46.35-86.78,3.06,3.06,0,1,1,3.14,5.25,88.89,88.89,0,0,0-43.38,81.21A3.06,3.06,0,0,1,876.59,566.37Z" transform="translate(-836.85 -432)" style="fill:#ff5e5b;stroke:#ff5e5b;stroke-miterlimit:10;stroke-width:6px"/></svg>