<svg id="Layer_1" data-name="Layer 1" xmlns="http://www.w3.org/2000/svg" xmlns:xlink="http://www.w3.org/1999/xlink" viewBox="0 0 1764.85 271.61"><defs><style>.cls-1{fill:#231f20;}.cls-2{fill:url(#linear-gradient);}.cls-3{fill:none;stroke-width:18px;}.cls-3,.cls-4{stroke:#fbfffe;stroke-miterlimit:10;}.cls-4{fill:#330036;stroke-width:6px;}</style><linearGradient id="linear-gradient" x1="332.77" y1="569.65" x2="1819.69" y2="569.65" gradientUnits="userSpaceOnUse"><stop offset="0" stop-color="#fbfffe"/><stop offset="0.36" stop-color="#fdc1bf"/><stop offset="0.8" stop-color="#fe7a77"/><stop offset="1" stop-color="#ff5e5b"/></linearGradient></defs><title>hyperglass-light</title><path d="M476.57,559.21v68.92q0,9.84-6.11,15.51t-16.56,5.67q-10.44,0-16.41-5.67t-6-15.51V558.62q0-13.12-5.52-19.55t-17.15-6.41q-14,0-22.52,9t-8.51,23.87v62.65q0,9.84-6,15.51t-16.41,5.67q-10.45,0-16.56-5.67t-6.12-15.51V456.28q0-9.24,6.42-14.91T356,435.7c6.57,0,11.83,1.79,15.82,5.37s6,8.35,6,14.32v65a49.7,49.7,0,0,1,20-17.16,63.78,63.78,0,0,1,27.75-5.81Q476.58,497.46,476.57,559.21Z" transform="translate(-54.85 -432)"/><path d="M617.83,501.63a20.2,20.2,0,0,1,10.6-3,22.94,22.94,0,0,1,15.21,5.52q6.55,5.52,6.57,13.27a18.59,18.59,0,0,1-2.09,8.36L567.86,690.48a21.56,21.56,0,0,1-8.05,9.4A20.14,20.14,0,0,1,549.07,703a21.76,21.76,0,0,1-14.62-5.37,16.64,16.64,0,0,1-6.27-13.12,19.73,19.73,0,0,1,2.09-8.95L550,634.69,496.86,525.8a20.32,20.32,0,0,1-1.79-8.06q0-8.06,7-13.72a24.67,24.67,0,0,1,16-5.67,20.62,20.62,0,0,1,11,3.13,21.56,21.56,0,0,1,8,9.4l37,80.55,36.1-80.55A19.23,19.23,0,0,1,617.83,501.63Z" transform="translate(-54.85 -432)"/><path d="M793.86,507.15q14.76,9.71,23,27.15t8.2,40.13q0,22.67-8.2,39.83T794,640.66q-14.62,9.26-33.72,9.25a58.92,58.92,0,0,1-27-6.12,44.44,44.44,0,0,1-18.64-17.15V683q0,9-6,14.32t-15.81,5.37q-10.46,0-16.86-5.66t-6.41-14.92V519.23q0-9.54,6.11-15.36T692,498.05q10.14,0,16.11,5.82t6,15.36v2.39a45.61,45.61,0,0,1,18.8-17.75,58.11,58.11,0,0,1,27.44-6.41A59.84,59.84,0,0,1,793.86,507.15ZM771.63,605q8.65-10.59,8.65-30.58,0-20.29-8.65-31.48t-24.46-11.19q-15.82,0-24.47,10.89t-8.65,31.18q0,20,8.65,30.88t24.47,10.89Q763,615.6,771.63,605Z" transform="translate(-54.85 -432)"/><path d="M979.72,608.74q3.74,4.77,3.73,12.23a16.28,16.28,0,0,1-3,9.4,24.23,24.23,0,0,1-8.36,7.31,106.8,106.8,0,0,1-23.57,8.8,100.86,100.86,0,0,1-24.76,3.43q-23.87,0-41.62-9.25a64.75,64.75,0,0,1-27.3-26.4q-9.54-17.16-9.54-40.43,0-22.38,9.25-39.68a67.81,67.81,0,0,1,25.65-27q16.41-9.69,37.3-9.69,20,0,35.05,8.8A60.07,60.07,0,0,1,976,531.32q8.35,16.26,8.36,38c0,4.37-1.05,7.71-3.14,10s-5,3.43-8.8,3.43H888.88q2.08,17.61,10.74,25.51t24.76,7.91a53.31,53.31,0,0,0,15.51-2.09,148.26,148.26,0,0,0,15.22-5.67c2.78-1.19,5.47-2.24,8-3.13A21.3,21.3,0,0,1,970,604,11.75,11.75,0,0,1,979.72,608.74Zm-81.6-72q-7.75,8.2-9.24,23.72h57.58q-.9-15.81-7.91-23.87t-19.84-8.06Q905.89,528.48,898.12,536.69Z" transform="translate(-54.85 -432)"/><path d="M1113.08,502.08q5.2,4.64,5.22,13.87,0,9.85-4.77,14.62t-17,6l-9,.89q-16.41,1.8-23.72,10.74t-7.31,23v57q0,10.44-6.41,15.81t-16,5.37q-9.86,0-16.26-5.37t-6.42-15.81V518.64q0-9.85,6.57-15.22a24.15,24.15,0,0,1,15.81-5.37,21.88,21.88,0,0,1,14.92,5.22q6,5.22,6,14.47v8.06A41.45,41.45,0,0,1,1071,506.11a50.41,50.41,0,0,1,23.72-7.76l4.18-.3Q1107.85,497.47,1113.08,502.08Z" transform="translate(-54.85 -432)"/><path d="M1271.5,503.87q6.11,5.82,6.11,15.36V631.71q0,35.5-20.58,53.7t-60.27,18.2q-33.42,0-54.89-11.93a24.23,24.23,0,0,1-8.36-7.31,16.7,16.7,0,0,1-3-9.7q0-7.45,3.58-12.23a11.31,11.31,0,0,1,9.55-4.77,27.39,27.39,0,0,1,7.75,1.34q4.48,1.34,9.25,3.13a175.48,175.48,0,0,0,17.6,5.67,68.89,68.89,0,0,0,17.31,2.09q19.08,0,28.34-8.65t9.25-26.26V618.88a44.21,44.21,0,0,1-18.8,17.9,59.44,59.44,0,0,1-28,6.56q-19.1,0-33.86-9a61.29,61.29,0,0,1-23.13-25.5q-8.36-16.56-8.35-38.34t8.35-38.34a62.34,62.34,0,0,1,23.13-25.66q14.76-9.09,33.86-9.09a59.08,59.08,0,0,1,27.6,6.41,45.5,45.5,0,0,1,18.94,17.75v-3q0-9.56,6.12-15.07t16.26-5.52Q1265.38,498.05,1271.5,503.87Zm-47.44,95q8.79-10.14,8.8-28.34t-8.8-28.49q-8.8-10.29-24.61-10.3t-24.77,10.3q-8.94,10.29-9,28.49t9,28.34q9,10.15,24.77,10.15T1224.06,598.89Z" transform="translate(-54.85 -432)"/><path d="M1318.63,643.94q-6.42-5.37-6.41-15.81V456.88q0-10.44,6.41-15.81t16.26-5.37q9.54,0,16,5.37t6.42,15.81V628.13q0,10.44-6.42,15.81t-16,5.37Q1325,649.31,1318.63,643.94Z" transform="translate(-54.85 -432)"/><path d="M1505.54,513.12q15.51,15.66,15.52,47.88v67.43q0,9.84-5.67,15.36t-15.81,5.52q-9.55,0-15.37-5.82t-5.82-15.06v-2.09a35.06,35.06,0,0,1-14.91,17.3q-10.45,6.27-24.47,6.27a60.12,60.12,0,0,1-27-6,47.31,47.31,0,0,1-19.09-16.71,42.67,42.67,0,0,1-7-23.86q0-16.11,8.2-25.36t26.4-13.43q18.2-4.17,49.83-4.17h7.75V555q0-12.54-5.51-18.2t-18.35-5.67q-12.84,0-37,9-6.87,3.28-11.63,3.28a12.91,12.91,0,0,1-10.44-4.62c-2.59-3.09-3.88-7.11-3.88-12.09a16.9,16.9,0,0,1,2.68-9.84q2.68-3.89,8.65-7.16,10.44-5.67,25.51-8.95a139,139,0,0,1,29.69-3.28Q1490,497.46,1505.54,513.12Zm-35.5,97q8.06-8.8,8-22.82v-5.08H1473q-24.16,0-33.86,3.88t-9.7,14a17.83,17.83,0,0,0,5.52,13.58,19.41,19.41,0,0,0,13.88,5.22Q1462,618.88,1470,610.08Z" transform="translate(-54.85 -432)"/><path d="M1578.63,646.92a71.45,71.45,0,0,1-23.57-9.54,18.28,18.28,0,0,1-6.86-7.16,21.27,21.27,0,0,1-2.39-10.15,17.28,17.28,0,0,1,3.88-11.48,12,12,0,0,1,9.55-4.63,23.53,23.53,0,0,1,7.76,1.35c2.58.89,5.26,1.94,8,3.13a106.46,106.46,0,0,0,16.41,6.11,75.54,75.54,0,0,0,20,2.24q10.44,0,16.26-3.28t5.82-9a9.08,9.08,0,0,0-2.54-6.71q-2.54-2.54-9.4-4.63t-21.78-5.07q-26.55-5.07-38.18-15.21T1550,544.59a38.73,38.73,0,0,1,8.21-24.16q8.19-10.74,22.52-16.86a81.43,81.43,0,0,1,32.22-6.11,96.24,96.24,0,0,1,25.06,3.28,79.88,79.88,0,0,1,21.78,9.25q9.24,5.67,9.25,16.7a18.34,18.34,0,0,1-3.88,11.94,11.88,11.88,0,0,1-9.55,4.77q-6.86,0-16.4-5.37a88.27,88.27,0,0,0-13.58-5.82,48.18,48.18,0,0,0-14.47-1.94q-9.26,0-14.62,3.43a10.63,10.63,0,0,0-5.37,9.4q0,6.27,6.27,9.55t24.16,6.56q20,3.88,31.33,9.4t16.41,13.87q5.07,8.35,5.07,21.19,0,21.18-17.45,33.71t-46.69,12.53A147.18,147.18,0,0,1,1578.63,646.92Z" transform="translate(-54.85 -432)"/><path d="M1723.92,646.92a71.4,71.4,0,0,1-23.56-9.54,18.24,18.24,0,0,1-6.87-7.16,21.27,21.27,0,0,1-2.38-10.15,17.23,17.23,0,0,1,3.88-11.48,12,12,0,0,1,9.54-4.63,23.48,23.48,0,0,1,7.76,1.35c2.58.89,5.27,1.94,8,3.13a106.46,106.46,0,0,0,16.41,6.11,75.59,75.59,0,0,0,20,2.24q10.44,0,16.26-3.28t5.82-9a9.08,9.08,0,0,0-2.54-6.71q-2.54-2.54-9.39-4.63t-21.78-5.07q-26.56-5.07-38.19-15.21t-11.64-28.35a38.79,38.79,0,0,1,8.21-24.16q8.21-10.74,22.52-16.86a81.43,81.43,0,0,1,32.22-6.11,96.31,96.31,0,0,1,25.07,3.28,79.82,79.82,0,0,1,21.77,9.25q9.26,5.67,9.25,16.7a18.29,18.29,0,0,1-3.88,11.94,11.86,11.86,0,0,1-9.54,4.77q-6.87,0-16.41-5.37a88.27,88.27,0,0,0-13.58-5.82,48.18,48.18,0,0,0-14.47-1.94q-9.24,0-14.61,3.43a10.63,10.63,0,0,0-5.37,9.4q0,6.27,6.26,9.55t24.17,6.56q20,3.88,31.32,9.4t16.41,13.87q5.07,8.35,5.07,21.19,0,21.18-17.45,33.71t-46.69,12.53A147.31,147.31,0,0,1,1723.92,646.92Z" transform="translate(-54.85 -432)"/><path class="cls-1" d="M476.57,559.21v68.92q0,9.84-6.11,15.51t-16.56,5.67q-10.44,0-16.41-5.67t-6-15.51V558.62q0-13.12-5.52-19.55t-17.15-6.41q-14,0-22.52,9t-8.51,23.87v62.65q0,9.84-6,15.51t-16.41,5.67q-10.45,0-16.56-5.67t-6.12-15.51V456.28q0-9.24,6.42-14.91T356,435.7c6.57,0,11.83,1.79,15.82,5.37s6,8.35,6,14.32v65a49.7,49.7,0,0,1,20-17.16,63.78,63.78,0,0,1,27.75-5.81Q476.58,497.46,476.57,559.21Z" transform="translate(-54.85 -432)"/><path class="cls-1" d="M617.83,501.63a20.2,20.2,0,0,1,10.6-3,22.94,22.94,0,0,1,15.21,5.52q6.55,5.52,6.57,13.27a18.59,18.59,0,0,1-2.09,8.36L567.86,690.48a21.56,21.56,0,0,1-8.05,9.4A20.14,20.14,0,0,1,549.07,703a21.76,21.76,0,0,1-14.62-5.37,16.64,16.64,0,0,1-6.27-13.12,19.73,19.73,0,0,1,2.09-8.95L550,634.69,496.86,525.8a20.32,20.32,0,0,1-1.79-8.06q0-8.06,7-13.72a24.67,24.67,0,0,1,16-5.67,20.62,20.62,0,0,1,11,3.13,21.56,21.56,0,0,1,8,9.4l37,80.55,36.1-80.55A19.23,19.23,0,0,1,617.83,501.63Z" transform="translate(-54.85 -432)"/><path class="cls-1" d="M793.86,507.15q14.76,9.71,23,27.15t8.2,40.13q0,22.67-8.2,39.83T794,640.66q-14.62,9.26-33.72,9.25a58.92,58.92,0,0,1-27-6.12,44.44,44.44,0,0,1-18.64-17.15V683q0,9-6,14.32t-15.81,5.37q-10.46,0-16.86-5.66t-6.41-14.92V519.23q0-9.54,6.11-15.36T692,498.05q10.14,0,16.11,5.82t6,15.36v2.39a45.61,45.61,0,0,1,18.8-17.75,58.11,58.11,0,0,1,27.44-6.41A59.84,59.84,0,0,1,793.86,507.15ZM771.63,605q8.65-10.59,8.65-30.58,0-20.29-8.65-31.48t-24.46-11.19q-15.82,0-24.47,10.89t-8.65,31.18q0,20,8.65,30.88t24.47,10.89Q763,615.6,771.63,605Z" transform="translate(-54.85 -432)"/><path class="cls-1" d="M979.72,608.74q3.74,4.77,3.73,12.23a16.28,16.28,0,0,1-3,9.4,24.23,24.23,0,0,1-8.36,7.31,106.8,106.8,0,0,1-23.57,8.8,100.86,100.86,0,0,1-24.76,3.43q-23.87,0-41.62-9.25a64.75,64.75,0,0,1-27.3-26.4q-9.54-17.16-9.54-40.43,0-22.38,9.25-39.68a67.81,67.81,0,0,1,25.65-27q16.41-9.69,37.3-9.69,20,0,35.05,8.8A60.07,60.07,0,0,1,976,531.32q8.35,16.26,8.36,38c0,4.37-1.05,7.71-3.14,10s-5,3.43-8.8,3.43H888.88q2.08,17.61,10.74,25.51t24.76,7.91a53.31,53.31,0,0,0,15.51-2.09,148.26,148.26,0,0,0,15.22-5.67c2.78-1.19,5.47-2.24,8-3.13A21.3,21.3,0,0,1,970,604,11.75,11.75,0,0,1,979.72,608.74Zm-81.6-72q-7.75,8.2-9.24,23.72h57.58q-.9-15.81-7.91-23.87t-19.84-8.06Q905.89,528.48,898.12,536.69Z" transform="translate(-54.85 -432)"/><path class="cls-1" d="M1113.08,502.08q5.2,4.64,5.22,13.87,0,9.85-4.77,14.62t-17,6l-9,.89q-16.41,1.8-23.72,10.74t-7.31,23v57q0,10.44-6.41,15.81t-16,5.37q-9.86,0-16.26-5.37t-6.42-15.81V518.64q0-9.85,6.57-15.22a24.15,24.15,0,0,1,15.81-5.37,21.88,21.88,0,0,1,14.92,5.22q6,5.22,6,14.47v8.06A41.45,41.45,0,0,1,1071,506.11a50.41,50.41,0,0,1,23.72-7.76l4.18-.3Q1107.85,497.47,1113.08,502.08Z" transform="translate(-54.85 -432)"/><path class="cls-1" d="M1271.5,503.87q6.11,5.82,6.11,15.36V631.71q0,35.5-20.58,53.7t-60.27,18.2q-33.42,0-54.89-11.93a24.23,24.23,0,0,1-8.36-7.31,16.7,16.7,0,0,1-3-9.7q0-7.45,3.58-12.23a11.31,11.31,0,0,1,9.55-4.77,27.39,27.39,0,0,1,7.75,1.34q4.48,1.34,9.25,3.13a175.48,175.48,0,0,0,17.6,5.67,68.89,68.89,0,0,0,17.31,2.09q19.08,0,28.34-8.65t9.25-26.26V618.88a44.21,44.21,0,0,1-18.8,17.9,59.44,59.44,0,0,1-28,6.56q-19.1,0-33.86-9a61.29,61.29,0,0,1-23.13-25.5q-8.36-16.56-8.35-38.34t8.35-38.34a62.34,62.34,0,0,1,23.13-25.66q14.76-9.09,33.86-9.09a59.08,59.08,0,0,1,27.6,6.41,45.5,45.5,0,0,1,18.94,17.75v-3q0-9.56,6.12-15.07t16.26-5.52Q1265.38,498.05,1271.5,503.87Zm-47.44,95q8.79-10.14,8.8-28.34t-8.8-28.49q-8.8-10.29-24.61-10.3t-24.77,10.3q-8.94,10.29-9,28.49t9,28.34q9,10.15,24.77,10.15T1224.06,598.89Z" transform="translate(-54.85 -432)"/><path class="cls-1" d="M1318.63,643.94q-6.42-5.37-6.41-15.81V456.88q0-10.44,6.41-15.81t16.26-5.37q9.54,0,16,5.37t6.42,15.81V628.13q0,10.44-6.42,15.81t-16,5.37Q1325,649.31,1318.63,643.94Z" transform="translate(-54.85 -432)"/><path class="cls-1" d="M1505.54,513.12q15.51,15.66,15.52,47.88v67.43q0,9.84-5.67,15.36t-15.81,5.52q-9.55,0-15.37-5.82t-5.82-15.06v-2.09a35.06,35.06,0,0,1-14.91,17.3q-10.45,6.27-24.47,6.27a60.12,60.12,0,0,1-27-6,47.31,47.31,0,0,1-19.09-16.71,42.67,42.67,0,0,1-7-23.86q0-16.11,8.2-25.36t26.4-13.43q18.2-4.17,49.83-4.17h7.75V555q0-12.54-5.51-18.2t-18.35-5.67q-12.84,0-37,9-6.87,3.28-11.63,3.28a12.91,12.91,0,0,1-10.44-4.62c-2.59-3.09-3.88-7.11-3.88-12.09a16.9,16.9,0,0,1,2.68-9.84q2.68-3.89,8.65-7.16,10.44-5.67,25.51-8.95a139,139,0,0,1,29.69-3.28Q1490,497.46,1505.54,513.12Zm-35.5,97q8.06-8.8,8-22.82v-5.08H1473q-24.16,0-33.86,3.88t-9.7,14a17.83,17.83,0,0,0,5.52,13.58,19.41,19.41,0,0,0,13.88,5.22Q1462,618.88,1470,610.08Z" transform="translate(-54.85 -432)"/><path class="cls-1" d="M1578.63,646.92a71.45,71.45,0,0,1-23.57-9.54,18.28,18.28,0,0,1-6.86-7.16,21.27,21.27,0,0,1-2.39-10.15,17.28,17.28,0,0,1,3.88-11.48,12,12,0,0,1,9.55-4.63,23.53,23.53,0,0,1,7.76,1.35c2.58.89,5.26,1.94,8,3.13a106.46,106.46,0,0,0,16.41,6.11,75.54,75.54,0,0,0,20,2.24q10.44,0,16.26-3.28t5.82-9a9.08,9.08,0,0,0-2.54-6.71q-2.54-2.54-9.4-4.63t-21.78-5.07q-26.55-5.07-38.18-15.21T1550,544.59a38.73,38.73,0,0,1,8.21-24.16q8.19-10.74,22.52-16.86a81.43,81.43,0,0,1,32.22-6.11,96.24,96.24,0,0,1,25.06,3.28,79.88,79.88,0,0,1,21.78,9.25q9.24,5.67,9.25,16.7a18.34,18.34,0,0,1-3.88,11.94,11.88,11.88,0,0,1-9.55,4.77q-6.86,0-16.4-5.37a88.27,88.27,0,0,0-13.58-5.82,48.18,48.18,0,0,0-14.47-1.94q-9.26,0-14.62,3.43a10.63,10.63,0,0,0-5.37,9.4q0,6.27,6.27,9.55t24.16,6.56q20,3.88,31.33,9.4t16.41,13.87q5.07,8.35,5.07,21.19,0,21.18-17.45,33.71t-46.69,12.53A147.18,147.18,0,0,1,1578.63,646.92Z" transform="translate(-54.85 -432)"/><path class="cls-1" d="M1723.92,646.92a71.4,71.4,0,0,1-23.56-9.54,18.24,18.24,0,0,1-6.87-7.16,21.27,21.27,0,0,1-2.38-10.15,17.23,17.23,0,0,1,3.88-11.48,12,12,0,0,1,9.54-4.63,23.48,23.48,0,0,1,7.76,1.35c2.58.89,5.27,1.94,8,3.13a106.46,106.46,0,0,0,16.41,6.11,75.59,75.59,0,0,0,20,2.24q10.44,0,16.26-3.28t5.82-9a9.08,9.08,0,0,0-2.54-6.71q-2.54-2.54-9.39-4.63t-21.78-5.07q-26.56-5.07-38.19-15.21t-11.64-28.35a38.79,38.79,0,0,1,8.21-24.16q8.21-10.74,22.52-16.86a81.43,81.43,0,0,1,32.22-6.11,96.31,96.31,0,0,1,25.07,3.28,79.82,79.82,0,0,1,21.77,9.25q9.26,5.67,9.25,16.7a18.29,18.29,0,0,1-3.88,11.94,11.86,11.86,0,0,1-9.54,4.77q-6.87,0-16.41-5.37a88.27,88.27,0,0,0-13.58-5.82,48.18,48.18,0,0,0-14.47-1.94q-9.24,0-14.61,3.43a10.63,10.63,0,0,0-5.37,9.4q0,6.27,6.26,9.55t24.17,6.56q20,3.88,31.32,9.4t16.41,13.87q5.07,8.35,5.07,21.19,0,21.18-17.45,33.71t-46.69,12.53A147.31,147.31,0,0,1,1723.92,646.92Z" transform="translate(-54.85 -432)"/><path class="cls-1" d="M476.57,559.21v68.92q0,9.84-6.11,15.51t-16.56,5.67q-10.44,0-16.41-5.67t-6-15.51V558.62q0-13.12-5.52-19.55t-17.15-6.41q-14,0-22.52,9t-8.51,23.87v62.65q0,9.84-6,15.51t-16.41,5.67q-10.45,0-16.56-5.67t-6.12-15.51V456.28q0-9.24,6.42-14.91T356,435.7c6.57,0,11.83,1.79,15.82,5.37s6,8.35,6,14.32v65a49.7,49.7,0,0,1,20-17.16,63.78,63.78,0,0,1,27.75-5.81Q476.58,497.46,476.57,559.21Z" transform="translate(-54.85 -432)"/><path class="cls-1" d="M617.83,501.63a20.2,20.2,0,0,1,10.6-3,22.94,22.94,0,0,1,15.21,5.52q6.55,5.52,6.57,13.27a18.59,18.59,0,0,1-2.09,8.36L567.86,690.48a21.56,21.56,0,0,1-8.05,9.4A20.14,20.14,0,0,1,549.07,703a21.76,21.76,0,0,1-14.62-5.37,16.64,16.64,0,0,1-6.27-13.12,19.73,19.73,0,0,1,2.09-8.95L550,634.69,496.86,525.8a20.32,20.32,0,0,1-1.79-8.06q0-8.06,7-13.72a24.67,24.67,0,0,1,16-5.67,20.62,20.62,0,0,1,11,3.13,21.56,21.56,0,0,1,8,9.4l37,80.55,36.1-80.55A19.23,19.23,0,0,1,617.83,501.63Z" transform="translate(-54.85 -432)"/><path class="cls-1" d="M793.86,507.15q14.76,9.71,23,27.15t8.2,40.13q0,22.67-8.2,39.83T794,640.66q-14.62,9.26-33.72,9.25a58.92,58.92,0,0,1-27-6.12,44.44,44.44,0,0,1-18.64-17.15V683q0,9-6,14.32t-15.81,5.37q-10.46,0-16.86-5.66t-6.41-14.92V519.23q0-9.54,6.11-15.36T692,498.05q10.14,0,16.11,5.82t6,15.36v2.39a45.61,45.61,0,0,1,18.8-17.75,58.11,58.11,0,0,1,27.44-6.41A59.84,59.84,0,0,1,793.86,507.15ZM771.63,605q8.65-10.59,8.65-30.58,0-20.29-8.65-31.48t-24.46-11.19q-15.82,0-24.47,10.89t-8.65,31.18q0,20,8.65,30.88t24.47,10.89Q763,615.6,771.63,605Z" transform="translate(-54.85 -432)"/><path class="cls-1" d="M979.72,608.74q3.74,4.77,3.73,12.23a16.28,16.28,0,0,1-3,9.4,24.23,24.23,0,0,1-8.36,7.31,106.8,106.8,0,0,1-23.57,8.8,100.86,100.86,0,0,1-24.76,3.43q-23.87,0-41.62-9.25a64.75,64.75,0,0,1-27.3-26.4q-9.54-17.16-9.54-40.43,0-22.38,9.25-39.68a67.81,67.81,0,0,1,25.65-27q16.41-9.69,37.3-9.69,20,0,35.05,8.8A60.07,60.07,0,0,1,976,531.32q8.35,16.26,8.36,38c0,4.37-1.05,7.71-3.14,10s-5,3.43-8.8,3.43H888.88q2.08,17.61,10.74,25.51t24.76,7.91a53.31,53.31,0,0,0,15.51-2.09,148.26,148.26,0,0,0,15.22-5.67c2.78-1.19,5.47-2.24,8-3.13A21.3,21.3,0,0,1,970,604,11.75,11.75,0,0,1,979.72,608.74Zm-81.6-72q-7.75,8.2-9.24,23.72h57.58q-.9-15.81-7.91-23.87t-19.84-8.06Q905.89,528.48,898.12,536.69Z" transform="translate(-54.85 -432)"/><path class="cls-1" d="M1113.08,502.08q5.2,4.64,5.22,13.87,0,9.85-4.77,14.62t-17,6l-9,.89q-16.41,1.8-23.72,10.74t-7.31,23v57q0,10.44-6.41,15.81t-16,5.37q-9.86,0-16.26-5.37t-6.42-15.81V518.64q0-9.85,6.57-15.22a24.15,24.15,0,0,1,15.81-5.37,21.88,21.88,0,0,1,14.92,5.22q6,5.22,6,14.47v8.06A41.45,41.45,0,0,1,1071,506.11a50.41,50.41,0,0,1,23.72-7.76l4.18-.3Q1107.85,497.47,1113.08,502.08Z" transform="translate(-54.85 -432)"/><path class="cls-1" d="M1271.5,503.87q6.11,5.82,6.11,15.36V631.71q0,35.5-20.58,53.7t-60.27,18.2q-33.42,0-54.89-11.93a24.23,24.23,0,0,1-8.36-7.31,16.7,16.7,0,0,1-3-9.7q0-7.45,3.58-12.23a11.31,11.31,0,0,1,9.55-4.77,27.39,27.39,0,0,1,7.75,1.34q4.48,1.34,9.25,3.13a175.48,175.48,0,0,0,17.6,5.67,68.89,68.89,0,0,0,17.31,2.09q19.08,0,28.34-8.65t9.25-26.26V618.88a44.21,44.21,0,0,1-18.8,17.9,59.44,59.44,0,0,1-28,6.56q-19.1,0-33.86-9a61.29,61.29,0,0,1-23.13-25.5q-8.36-16.56-8.35-38.34t8.35-38.34a62.34,62.34,0,0,1,23.13-25.66q14.76-9.09,33.86-9.09a59.08,59.08,0,0,1,27.6,6.41,45.5,45.5,0,0,1,18.94,17.75v-3q0-9.56,6.12-15.07t16.26-5.52Q1265.38,498.05,1271.5,503.87Zm-47.44,95q8.79-10.14,8.8-28.34t-8.8-28.49q-8.8-10.29-24.61-10.3t-24.77,10.3q-8.94,10.29-9,28.49t9,28.34q9,10.15,24.77,10.15T1224.06,598.89Z" transform="translate(-54.85 -432)"/><path class="cls-1" d="M1318.63,643.94q-6.42-5.37-6.41-15.81V456.88q0-10.44,6.41-15.81t16.26-5.37q9.54,0,16,5.37t6.42,15.81V628.13q0,10.44-6.42,15.81t-16,5.37Q1325,649.31,1318.63,643.94Z" transform="translate(-54.85 -432)"/><path class="cls-1" d="M1505.54,513.12q15.51,15.66,15.52,47.88v67.43q0,9.84-5.67,15.36t-15.81,5.52q-9.55,0-15.37-5.82t-5.82-15.06v-2.09a35.06,35.06,0,0,1-14.91,17.3q-10.45,6.27-24.47,6.27a60.12,60.12,0,0,1-27-6,47.31,47.31,0,0,1-19.09-16.71,42.67,42.67,0,0,1-7-23.86q0-16.11,8.2-25.36t26.4-13.43q18.2-4.17,49.83-4.17h7.75V555q0-12.54-5.51-18.2t-18.35-5.67q-12.84,0-37,9-6.87,3.28-11.63,3.28a12.91,12.91,0,0,1-10.44-4.62c-2.59-3.09-3.88-7.11-3.88-12.09a16.9,16.9,0,0,1,2.68-9.84q2.68-3.89,8.65-7.16,10.44-5.67,25.51-8.95a139,139,0,0,1,29.69-3.28Q1490,497.46,1505.54,513.12Zm-35.5,97q8.06-8.8,8-22.82v-5.08H1473q-24.16,0-33.86,3.88t-9.7,14a17.83,17.83,0,0,0,5.52,13.58,19.41,19.41,0,0,0,13.88,5.22Q1462,618.88,1470,610.08Z" transform="translate(-54.85 -432)"/><path class="cls-1" d="M1578.63,646.92a71.45,71.45,0,0,1-23.57-9.54,18.28,18.28,0,0,1-6.86-7.16,21.27,21.27,0,0,1-2.39-10.15,17.28,17.28,0,0,1,3.88-11.48,12,12,0,0,1,9.55-4.63,23.53,23.53,0,0,1,7.76,1.35c2.58.89,5.26,1.94,8,3.13a106.46,106.46,0,0,0,16.41,6.11,75.54,75.54,0,0,0,20,2.24q10.44,0,16.26-3.28t5.82-9a9.08,9.08,0,0,0-2.54-6.71q-2.54-2.54-9.4-4.63t-21.78-5.07q-26.55-5.07-38.18-15.21T1550,544.59a38.73,38.73,0,0,1,8.21-24.16q8.19-10.74,22.52-16.86a81.43,81.43,0,0,1,32.22-6.11,96.24,96.24,0,0,1,25.06,3.28,79.88,79.88,0,0,1,21.78,9.25q9.24,5.67,9.25,16.7a18.34,18.34,0,0,1-3.88,11.94,11.88,11.88,0,0,1-9.55,4.77q-6.86,0-16.4-5.37a88.27,88.27,0,0,0-13.58-5.82,48.18,48.18,0,0,0-14.47-1.94q-9.26,0-14.62,3.43a10.63,10.63,0,0,0-5.37,9.4q0,6.27,6.27,9.55t24.16,6.56q20,3.88,31.33,9.4t16.41,13.87q5.07,8.35,5.07,21.19,0,21.18-17.45,33.71t-46.69,12.53A147.18,147.18,0,0,1,1578.63,646.92Z" transform="translate(-54.85 -432)"/><path class="cls-1" d="M1723.92,646.92a71.4,71.4,0,0,1-23.56-9.54,18.24,18.24,0,0,1-6.87-7.16,21.27,21.27,0,0,1-2.38-10.15,17.23,17.23,0,0,1,3.88-11.48,12,12,0,0,1,9.54-4.63,23.48,23.48,0,0,1,7.76,1.35c2.58.89,5.27,1.94,8,3.13a106.46,106.46,0,0,0,16.41,6.11,75.59,75.59,0,0,0,20,2.24q10.44,0,16.26-3.28t5.82-9a9.08,9.08,0,0,0-2.54-6.71q-2.54-2.54-9.39-4.63t-21.78-5.07q-26.56-5.07-38.19-15.21t-11.64-28.35a38.79,38.79,0,0,1,8.21-24.16q8.21-10.74,22.52-16.86a81.43,81.43,0,0,1,32.22-6.11,96.31,96.31,0,0,1,25.07,3.28,79.82,79.82,0,0,1,21.77,9.25q9.26,5.67,9.25,16.7a18.29,18.29,0,0,1-3.88,11.94,11.86,11.86,0,0,1-9.54,4.77q-6.87,0-16.41-5.37a88.27,88.27,0,0,0-13.58-5.82,48.18,48.18,0,0,0-14.47-1.94q-9.24,0-14.61,3.43a10.63,10.63,0,0,0-5.37,9.4q0,6.27,6.26,9.55t24.17,6.56q20,3.88,31.32,9.4t16.41,13.87q5.07,8.35,5.07,21.19,0,21.18-17.45,33.71t-46.69,12.53A147.31,147.31,0,0,1,1723.92,646.92Z" transform="translate(-54.85 -432)"/><path class="cls-2" d="M476.57,559.21v68.92q0,9.84-6.11,15.51t-16.56,5.67q-10.44,0-16.41-5.67t-6-15.51V558.62q0-13.12-5.52-19.55t-17.15-6.41q-14,0-22.52,9t-8.51,23.87v62.65q0,9.84-6,15.51t-16.41,5.67q-10.45,0-16.56-5.67t-6.12-15.51V456.28q0-9.24,6.42-14.91T356,435.7c6.57,0,11.83,1.79,15.82,5.37s6,8.35,6,14.32v65a49.7,49.7,0,0,1,20-17.16,63.78,63.78,0,0,1,27.75-5.81Q476.58,497.46,476.57,559.21Z" transform="translate(-54.85 -432)"/><path class="cls-2" d="M617.83,501.63a20.2,20.2,0,0,1,10.6-3,22.94,22.94,0,0,1,15.21,5.52q6.55,5.52,6.57,13.27a18.59,18.59,0,0,1-2.09,8.36L567.86,690.48a21.56,21.56,0,0,1-8.05,9.4A20.14,20.14,0,0,1,549.07,703a21.76,21.76,0,0,1-14.62-5.37,16.64,16.64,0,0,1-6.27-13.12,19.73,19.73,0,0,1,2.09-8.95L550,634.69,496.86,525.8a20.32,20.32,0,0,1-1.79-8.06q0-8.06,7-13.72a24.67,24.67,0,0,1,16-5.67,20.62,20.62,0,0,1,11,3.13,21.56,21.56,0,0,1,8,9.4l37,80.55,36.1-80.55A19.23,19.23,0,0,1,617.83,501.63Z" transform="translate(-54.85 -432)"/><path class="cls-2" d="M793.86,507.15q14.76,9.71,23,27.15t8.2,40.13q0,22.67-8.2,39.83T794,640.66q-14.62,9.26-33.72,9.25a58.92,58.92,0,0,1-27-6.12,44.44,44.44,0,0,1-18.64-17.15V683q0,9-6,14.32t-15.81,5.37q-10.46,0-16.86-5.66t-6.41-14.92V519.23q0-9.54,6.11-15.36T692,498.05q10.14,0,16.11,5.82t6,15.36v2.39a45.61,45.61,0,0,1,18.8-17.75,58.11,58.11,0,0,1,27.44-6.41A59.84,59.84,0,0,1,793.86,507.15ZM771.63,605q8.65-10.59,8.65-30.58,0-20.29-8.65-31.48t-24.46-11.19q-15.82,0-24.47,10.89t-8.65,31.18q0,20,8.65,30.88t24.47,10.89Q763,615.6,771.63,605Z" transform="translate(-54.85 -432)"/><path class="cls-2" d="M979.72,608.74q3.74,4.77,3.73,12.23a16.28,16.28,0,0,1-3,9.4,24.23,24.23,0,0,1-8.36,7.31,106.8,106.8,0,0,1-23.57,8.8,100.86,100.86,0,0,1-24.76,3.43q-23.87,0-41.62-9.25a64.75,64.75,0,0,1-27.3-26.4q-9.54-17.16-9.54-40.43,0-22.38,9.25-39.68a67.81,67.81,0,0,1,25.65-27q16.41-9.69,37.3-9.69,20,0,35.05,8.8A60.07,60.07,0,0,1,976,531.32q8.35,16.26,8.36,38c0,4.37-1.05,7.71-3.14,10s-5,3.43-8.8,3.43H888.88q2.08,17.61,10.74,25.51t24.76,7.91a53.31,53.31,0,0,0,15.51-2.09,148.26,148.26,0,0,0,15.22-5.67c2.78-1.19,5.47-2.24,8-3.13A21.3,21.3,0,0,1,970,604,11.75,11.75,0,0,1,979.72,608.74Zm-81.6-72q-7.75,8.2-9.24,23.72h57.58q-.9-15.81-7.91-23.87t-19.84-8.06Q905.89,528.48,898.12,536.69Z" transform="translate(-54.85 -432)"/><path class="cls-2" d="M1113.08,502.08q5.2,4.64,5.22,13.87,0,9.85-4.77,14.62t-17,6l-9,.89q-16.41,1.8-23.72,10.74t-7.31,23v57q0,10.44-6.41,15.81t-16,5.37q-9.86,0-16.26-5.37t-6.42-15.81V518.64q0-9.85,6.57-15.22a24.15,24.15,0,0,1,15.81-5.37,21.88,21.88,0,0,1,14.92,5.22q6,5.22,6,14.47v8.06A41.45,41.45,0,0,1,1071,506.11a50.41,50.41,0,0,1,23.72-7.76l4.18-.3Q1107.85,497.47,1113.08,502.08Z" transform="translate(-54.85 -432)"/><path class="cls-2" d="M1271.5,503.87q6.11,5.82,6.11,15.36V631.71q0,35.5-20.58,53.7t-60.27,18.2q-33.42,0-54.89-11.93a24.23,24.23,0,0,1-8.36-7.31,16.7,16.7,0,0,1-3-9.7q0-7.45,3.58-12.23a11.31,11.31,0,0,1,9.55-4.77,27.39,27.39,0,0,1,7.75,1.34q4.48,1.34,9.25,3.13a175.48,175.48,0,0,0,17.6,5.67,68.89,68.89,0,0,0,17.31,2.09q19.08,0,28.34-8.65t9.25-26.26V618.88a44.21,44.21,0,0,1-18.8,17.9,59.44,59.44,0,0,1-28,6.56q-19.1,0-33.86-9a61.29,61.29,0,0,1-23.13-25.5q-8.36-16.56-8.35-38.34t8.35-38.34a62.34,62.34,0,0,1,23.13-25.66q14.76-9.09,33.86-9.09a59.08,59.08,0,0,1,27.6,6.41,45.5,45.5,0,0,1,18.94,17.75v-3q0-9.56,6.12-15.07t16.26-5.52Q1265.38,498.05,1271.5,503.87Zm-47.44,95q8.79-10.14,8.8-28.34t-8.8-28.49q-8.8-10.29-24.61-10.3t-24.77,10.3q-8.94,10.29-9,28.49t9,28.34q9,10.15,24.77,10.15T1224.06,598.89Z" transform="translate(-54.85 -432)"/><path class="cls-2" d="M1318.63,643.94q-6.42-5.37-6.41-15.81V456.88q0-10.44,6.41-15.81t16.26-5.37q9.54,0,16,5.37t6.42,15.81V628.13q0,10.44-6.42,15.81t-16,5.37Q1325,649.31,1318.63,643.94Z" transform="translate(-54.85 -432)"/><path class="cls-2" d="M1505.54,513.12q15.51,15.66,15.52,47.88v67.43q0,9.84-5.67,15.36t-15.81,5.52q-9.55,0-15.37-5.82t-5.82-15.06v-2.09a35.06,35.06,0,0,1-14.91,17.3q-10.45,6.27-24.47,6.27a60.12,60.12,0,0,1-27-6,47.31,47.31,0,0,1-19.09-16.71,42.67,42.67,0,0,1-7-23.86q0-16.11,8.2-25.36t26.4-13.43q18.2-4.17,49.83-4.17h7.75V555q0-12.54-5.51-18.2t-18.35-5.67q-12.84,0-37,9-6.87,3.28-11.63,3.28a12.91,12.91,0,0,1-10.44-4.62c-2.59-3.09-3.88-7.11-3.88-12.09a16.9,16.9,0,0,1,2.68-9.84q2.68-3.89,8.65-7.16,10.44-5.67,25.51-8.95a139,139,0,0,1,29.69-3.28Q1490,497.46,1505.54,513.12Zm-35.5,97q8.06-8.8,8-22.82v-5.08H1473q-24.16,0-33.86,3.88t-9.7,14a17.83,17.83,0,0,0,5.52,13.58,19.41,19.41,0,0,0,13.88,5.22Q1462,618.88,1470,610.08Z" transform="translate(-54.85 -432)"/><path class="cls-2" d="M1578.63,646.92a71.45,71.45,0,0,1-23.57-9.54,18.28,18.28,0,0,1-6.86-7.16,21.27,21.27,0,0,1-2.39-10.15,17.28,17.28,0,0,1,3.88-11.48,12,12,0,0,1,9.55-4.63,23.53,23.53,0,0,1,7.76,1.35c2.58.89,5.26,1.94,8,3.13a106.46,106.46,0,0,0,16.41,6.11,75.54,75.54,0,0,0,20,2.24q10.44,0,16.26-3.28t5.82-9a9.08,9.08,0,0,0-2.54-6.71q-2.54-2.54-9.4-4.63t-21.78-5.07q-26.55-5.07-38.18-15.21T1550,544.59a38.73,38.73,0,0,1,8.21-24.16q8.19-10.74,22.52-16.86a81.43,81.43,0,0,1,32.22-6.11,96.24,96.24,0,0,1,25.06,3.28,79.88,79.88,0,0,1,21.78,9.25q9.24,5.67,9.25,16.7a18.34,18.34,0,0,1-3.88,11.94,11.88,11.88,0,0,1-9.55,4.77q-6.86,0-16.4-5.37a88.27,88.27,0,0,0-13.58-5.82,48.18,48.18,0,0,0-14.47-1.94q-9.26,0-14.62,3.43a10.63,10.63,0,0,0-5.37,9.4q0,6.27,6.27,9.55t24.16,6.56q20,3.88,31.33,9.4t16.41,13.87q5.07,8.35,5.07,21.19,0,21.18-17.45,33.71t-46.69,12.53A147.18,147.18,0,0,1,1578.63,646.92Z" transform="translate(-54.85 -432)"/><path class="cls-2" d="M1723.92,646.92a71.4,71.4,0,0,1-23.56-9.54,18.24,18.24,0,0,1-6.87-7.16,21.27,21.27,0,0,1-2.38-10.15,17.23,17.23,0,0,1,3.88-11.48,12,12,0,0,1,9.54-4.63,23.48,23.48,0,0,1,7.76,1.35c2.58.89,5.27,1.94,8,3.13a106.46,106.46,0,0,0,16.41,6.11,75.59,75.59,0,0,0,20,2.24q10.44,0,16.26-3.28t5.82-9a9.08,9.08,0,0,0-2.54-6.71q-2.54-2.54-9.39-4.63t-21.78-5.07q-26.56-5.07-38.19-15.21t-11.64-28.35a38.79,38.79,0,0,1,8.21-24.16q8.21-10.74,22.52-16.86a81.43,81.43,0,0,1,32.22-6.11,96.31,96.31,0,0,1,25.07,3.28,79.82,79.82,0,0,1,21.77,9.25q9.26,5.67,9.25,16.7a18.29,18.29,0,0,1-3.88,11.94,11.86,11.86,0,0,1-9.54,4.77q-6.87,0-16.41-5.37a88.27,88.27,0,0,0-13.58-5.82,48.18,48.18,0,0,0-14.47-1.94q-9.24,0-14.61,3.43a10.63,10.63,0,0,0-5.37,9.4q0,6.27,6.26,9.55t24.17,6.56q20,3.88,31.32,9.4t16.41,13.87q5.07,8.35,5.07,21.19,0,21.18-17.45,33.71t-46.69,12.53A147.31,147.31,0,0,1,1723.92,646.92Z" transform="translate(-54.85 -432)"/><path class="cls-3" d="M176.35,666a112.5,112.5,0,1,1,112.5-112.5A112.62,112.62,0,0,1,176.35,666Zm0-218.88A106.38,106.38,0,1,0,282.73,553.5,106.51,106.51,0,0,0,176.35,447.12Z" transform="translate(-54.85 -432)"/><path class="cls-4" d="M105.37,603.1a3.07,3.07,0,0,1-3.1-1.43,95.14,95.14,0,0,1-7.7-15.9,3.06,3.06,0,1,1,5.73-2.15,89.13,89.13,0,0,0,7.2,14.88,3,3,0,0,1-2.13,4.6Z" transform="translate(-54.85 -432)"/><path class="cls-4" d="M94.59,566.37a3,3,0,0,1-3.21-2.89,95,95,0,0,1,46.35-86.78,3.06,3.06,0,1,1,3.14,5.25,88.89,88.89,0,0,0-43.38,81.21A3.06,3.06,0,0,1,94.59,566.37Z" transform="translate(-54.85 -432)"/></svg>